# xmcd
#
# Track frame offsets:
#	150
#	18484
#	38064
#	58052
#	81735
#	99844
#	118023
#	136929
#	155900
#	176489
#	195540
#	215168
#
# Disc length: 3153 seconds
#
# Revision: 0
# Processed by: cddbd v1.4PL0 Copyright (c) Steve Scherf et al.
# Submitted via: EasyCDDAExtractor 4.6.0.1
#
DISCID=ab0c4f0c
DTITLE=Instrumental Romantic Orchesta - Para sentirse bien
DYEAR=1900
DGENRE=Blues
TTITLE0=Et Maintenant
TTITLE1=Hey
TTITLE2=Yesterday
TTITLE3=La vida color de rosa
TTITLE4=Nem as Paredes Confesso
TTITLE5=Tema del lago de los cisnes
TTITLE6=Manuela
TTITLE7=And i love her
TTITLE8=Champagne
TTITLE9=Sonata claro de luna
TTITLE10=Al Di La
TTITLE11=Coimbra
EXTD=
EXTT0=
EXTT1=
EXTT2=
EXTT3=
EXTT4=
EXTT5=
EXTT6=
EXTT7=
EXTT8=
EXTT9=
EXTT10=
EXTT11=
PLAYORDER=
